<svg xmlns="http://www.w3.org/2000/svg" viewBox="0 0 1200 900" role="img" aria-labelledby="title desc">
<title id="title">Abstract collaborative workshop</title><desc id="desc">A clean workspace illustration with cards, notes and process lines.</desc>
<rect width="1200" height="900" rx="72" fill="#f4f5f7"/>
<rect x="120" y="120" width="960" height="660" rx="42" fill="#fff" stroke="#e0e3e8" stroke-width="3"/>
<rect x="185" y="190" width="300" height="220" rx="26" fill="#20262d"/>
<rect x="230" y="245" width="170" height="20" rx="10" fill="#fff"/>
<rect x="230" y="292" width="210" height="13" rx="7" fill="#fff" opacity=".38"/>
<rect x="230" y="327" width="150" height="13" rx="7" fill="#fff" opacity=".38"/>
<rect x="525" y="190" width="235" height="220" rx="26" fill="#e8edff"/>
<circle cx="643" cy="274" r="46" fill="#4b5563" opacity=".86"/>
<path d="M604 350h78" stroke="#4b5563" stroke-width="15" stroke-linecap="round"/>
<rect x="800" y="190" width="215" height="220" rx="26" fill="#e7f1ee"/>
<path d="M846 338c45-120 92-96 124-35" fill="none" stroke="#6b7280" stroke-width="18" stroke-linecap="round"/>
<circle cx="846" cy="338" r="14" fill="#6b7280"/><circle cx="970" cy="303" r="14" fill="#6b7280"/>
<path d="M250 545h700" stroke="#d7dce2" stroke-width="4" stroke-dasharray="14 18"/>
<circle cx="282" cy="545" r="32" fill="#4b5563"/><circle cx="520" cy="545" r="32" fill="#6b7280"/><circle cx="758" cy="545" r="32" fill="#20262d"/><circle cx="944" cy="545" r="32" fill="#f0b44d"/>
<rect x="220" y="630" width="160" height="18" rx="9" fill="#20262d"/><rect x="458" y="630" width="160" height="18" rx="9" fill="#20262d"/><rect x="696" y="630" width="160" height="18" rx="9" fill="#20262d"/>
<rect x="220" y="670" width="120" height="13" rx="7" fill="#b9c0ca"/><rect x="458" y="670" width="120" height="13" rx="7" fill="#b9c0ca"/><rect x="696" y="670" width="120" height="13" rx="7" fill="#b9c0ca"/>
</svg>
